HIERARCHY
ROOT hip
{
	OFFSET 0.000000 0.000000 0.000000 
	CHANNELS 6 Xposition Yposition Zposition Xrotation Zrotation Yrotation
	JOINT abdomen
	{
		OFFSET 0.000000 3.402643 0.000000 
		CHANNELS 3 Xrotation Zrotation Yrotation
		JOINT chest
		{
			OFFSET 0.000000 8.438565 -0.680529 
			CHANNELS 3 Xrotation Zrotation Yrotation
			JOINT neck
			{
				OFFSET 0.000000 10.207942 -0.272212 
				CHANNELS 3 Xrotation Zrotation Yrotation
				JOINT head
				{
					OFFSET 0.000000 3.130431 0.000000 
					CHANNELS 3 Xrotation Zrotation Yrotation
					End Site
					{
						OFFSET 0.000000 3.130435 0.000000 
					}
				}
			}
			JOINT lCollar
			{
				OFFSET 3.470700 6.669187 -0.816635 
				CHANNELS 3 Yrotation Zrotation Xrotation
				JOINT lShldr
				{
					OFFSET 3.198488 0.000000 0.000000 
					CHANNELS 3 Zrotation Yrotation Xrotation
					JOINT lForeArm
					{
						OFFSET 10.139888 0.000000 0.000000 
						CHANNELS 3 Yrotation Zrotation Xrotation
						JOINT lHand
						{
							OFFSET 8.370511 0.000000 0.000000 
							CHANNELS 3 Zrotation Yrotation Xrotation
							End Site
							{
								OFFSET 4.083176 0.000000 0.000000 
							}
						}
					}
				}
			}
			JOINT rCollar
			{
				OFFSET -3.470700 6.669187 -0.816635 
				CHANNELS 3 Yrotation Zrotation Xrotation
				JOINT rShldr
				{
					OFFSET -3.198488 0.000000 0.000000 
					CHANNELS 3 Zrotation Yrotation Xrotation
					JOINT rForeArm
					{
						OFFSET -10.139888 0.000000 0.000000 
						CHANNELS 3 Yrotation Zrotation Xrotation
						JOINT rHand
						{
							OFFSET -8.370511 0.000000 0.000000 
							CHANNELS 3 Zrotation Yrotation Xrotation
							End Site
							{
								OFFSET -4.083176 0.000000 0.000000 
							}
						}
					}
				}
			}
		}
	}
	JOINT lThigh
	{
		OFFSET 5.308129 -1.633274 1.361059 
		CHANNELS 3 Xrotation Zrotation Yrotation
		JOINT lShin
		{
			OFFSET -2.041588 -20.007561 0.000000 
			CHANNELS 3 Xrotation Zrotation Yrotation
			JOINT lFoot
			{
				OFFSET 0.000000 -19.190928 -1.224953 
				CHANNELS 3 Xrotation Yrotation Zrotation
				End Site
				{
					OFFSET 0.000000 -2.449906 4.627600 
				}
			}
		}
	}
	JOINT rThigh
	{
		OFFSET -5.308129 -1.633274 1.361059 
		CHANNELS 3 Xrotation Zrotation Yrotation
		JOINT rShin
		{
			OFFSET 2.041588 -20.007561 0.000000 
			CHANNELS 3 Xrotation Zrotation Yrotation
			JOINT rFoot
			{
				OFFSET 0.000000 -19.190928 -1.224953 
				CHANNELS 3 Xrotation Yrotation Zrotation
				End Site
				{
					OFFSET 0.000000 -2.449906 4.627600 
				}
			}
		}
	}
}
MOTION
Frames: 14
Frame Time: 0.033333
-23.580725 39.126350 -2.377502 -2.158389 0.751420 1.407230 0.000000 0.000000 0.000000 18.008848 -0.603670 -5.948288 -73.292633 5.971878 -10.440425 46.829475 -4.516711 -1.225676 -3.519355 9.157742 6.311733 -16.320404 -113.094971 -23.115528 -27.853170 20.534437 39.607319 34.795982 -5.682149 -12.866923 3.090466 -14.082293 8.028685 20.148867 120.395020 -54.301559 87.689293 8.658371 42.456436 -37.567356 -18.384193 -6.967361 -28.016390 23.689878 12.930337 76.187759 0.167796 -20.984409 -23.130812 -3.294524 13.164973 -34.401253 -24.624834 -18.625483 78.162102 -6.513483 -2.395593 -22.920147 1.718025 -7.345572 
-23.595108 42.129166 -1.842374 -1.884973 0.849150 1.651745 0.000000 0.000000 0.000000 13.876986 0.123248 -8.221484 -66.022934 6.742964 -8.550910 43.752224 -4.588216 0.047255 -3.519355 9.157742 6.311733 -33.060299 -109.700607 -21.840145 -27.880331 19.287313 34.297901 49.140503 -2.678136 -14.197612 3.090466 -14.082293 8.028685 42.342339 118.732185 -32.351791 81.104790 11.687858 31.122341 -42.553738 -25.113335 -4.419243 -23.699432 22.155567 13.795185 65.988754 -0.690591 -23.608526 -11.016038 -0.877458 6.558700 -29.570181 -23.720507 -19.310408 68.255142 -4.677166 2.084938 -10.287700 0.561473 -4.420192 
-23.592932 45.997906 -1.035469 -1.289289 1.073947 0.102788 0.000000 0.000000 0.000000 7.598048 -0.580793 -9.794364 -56.470860 7.069149 -6.140847 41.665237 -3.349036 1.366917 -3.519355 9.157742 6.311733 -60.316738 -99.289848 -12.487045 -30.384632 14.968276 25.841612 52.890396 2.000009 -12.814134 3.090466 -14.082293 8.028685 58.977917 110.466995 -20.805622 84.450096 15.968190 18.614954 -42.598984 -27.902786 -3.423533 -16.334372 20.733917 16.192976 49.640671 -2.242129 -28.082920 8.186776 -0.021734 -7.093186 -22.646173 -22.147648 -19.525408 52.046497 -1.737713 8.408359 6.386452 -0.069338 0.520118 
-23.625437 50.541481 -0.213942 1.426211 1.405815 -0.697196 0.000000 0.000000 0.000000 0.976610 -0.566324 -12.421859 -51.113270 7.592959 -3.875532 41.633244 -3.768487 2.914032 -3.519355 9.157742 6.311733 -22.961458 -74.405586 -72.892471 -49.091663 1.987689 12.686891 60.306828 6.758050 -11.276100 3.090466 -14.082293 8.028685 86.997292 98.942780 1.549455 94.676315 18.851452 21.533123 -42.717133 -25.617558 -4.170311 -8.505367 18.053261 17.188004 24.914497 -5.022394 -30.738457 31.305485 -6.253891 -28.246885 -13.700397 -20.104280 -19.853025 26.436575 2.051845 12.482188 31.219685 2.148816 10.926540 
-23.613277 54.736889 0.545886 4.719721 2.014635 -0.204557 0.000000 0.000000 0.000000 -7.158493 -0.513544 -15.873005 -49.801151 8.456721 -3.091050 47.119438 -4.897743 3.670443 -3.519355 9.157742 6.311733 -43.660419 -55.062584 -76.706413 -58.586910 -4.962261 4.921540 66.853394 9.937158 -9.863167 3.090466 -14.082293 8.028685 38.708603 78.532722 -55.167736 104.257652 20.321533 22.724989 -38.004002 -22.518353 -5.765589 -4.668254 15.846879 15.997266 7.959310 -3.856762 -24.700191 45.752621 -16.419996 -42.600403 -7.607761 -19.197685 -19.257130 7.466560 3.376349 16.704962 52.670406 9.734632 21.205135 
-23.629789 56.746338 1.471820 5.109814 1.750831 -0.487771 0.000000 0.000000 0.000000 -9.474835 -1.223320 -14.444339 -54.182995 11.562523 -7.889194 52.243690 -7.099941 2.593759 -3.519355 9.157742 6.311733 -51.059673 -44.080509 -82.991409 -67.965668 -7.262963 14.212997 69.322639 11.181418 -9.177909 3.090466 -14.082293 8.028685 45.762440 54.220104 -58.888203 115.390923 20.235041 10.488081 -30.845926 -21.633648 -6.704984 -9.540643 19.946545 19.312725 30.054348 -5.526526 -23.628845 36.006702 -9.086590 -32.386974 -11.445150 -21.892353 -21.074036 26.083471 1.826133 22.431360 44.030628 6.575119 18.932861 
-23.691677 57.409691 2.438905 0.996130 0.488207 -1.270725 0.000000 0.000000 0.000000 -5.342616 -1.001490 -10.306753 -60.415508 11.951729 -12.324089 54.835926 -9.197037 0.154658 -3.519355 9.157742 6.311733 -58.889767 -34.547977 -74.593483 -78.483780 -9.108649 31.284992 68.208885 8.840676 -10.479403 3.090466 -14.082293 8.028685 50.629383 29.278381 -56.839264 122.524414 18.432850 11.924733 -18.809589 -19.041353 -8.062366 -10.957488 26.819082 24.065039 57.870247 -2.704748 -26.946861 28.430099 -5.705156 -27.813797 -12.070353 -25.308241 -24.478056 53.242767 -1.769692 23.451162 32.360718 3.277068 13.310643 
-23.717794 58.240059 2.966734 -1.630878 0.273327 -0.974579 0.000000 0.000000 0.000000 -0.498372 -2.070234 -6.827711 -66.772919 13.414774 -18.344048 55.221859 -15.830417 -2.918127 -3.519355 9.157742 6.311733 -67.147018 -24.002022 -55.053463 -92.947784 -12.547589 33.649639 58.158001 3.336816 -12.860395 3.090466 -14.082293 8.028685 59.950325 12.097929 -38.157166 133.831970 12.201826 -2.618785 -8.012090 -13.415642 -8.836862 -11.105142 32.619099 28.228437 81.217247 0.425150 -18.932159 20.409197 -2.803453 -21.770819 -11.613156 -30.968029 -29.131798 76.407555 -6.683345 14.434011 30.073023 2.944108 13.459821 
-23.705162 57.953339 2.803603 -1.699280 0.488067 -1.450025 0.000000 0.000000 0.000000 1.389585 -3.680561 -5.304507 -67.901016 16.388544 -22.401213 53.246838 -20.767290 -3.236893 -3.519355 9.157742 6.311733 -67.855522 -22.278837 -25.613527 -102.716370 -11.415999 18.194185 39.220760 -1.724856 -12.333634 3.090466 -14.082293 8.028685 65.584061 18.728254 -2.115914 138.706039 2.747307 -8.653953 7.291205 -4.577409 -7.650313 -14.981001 37.157623 28.214466 102.874825 3.399395 -13.174639 12.082691 -0.881988 -16.295988 -17.344685 -36.213272 -27.793306 102.283043 -11.176729 0.225585 24.382431 2.122071 12.851634 
-23.783987 57.273422 2.293615 -3.145063 1.053099 -2.362539 0.000000 0.000000 0.000000 4.013623 -3.984376 -5.171921 -63.937988 14.060403 -17.083853 53.866852 -13.902394 -1.462525 -3.519355 9.157742 6.311733 -69.368279 -37.267754 3.055397 -96.140739 -10.804566 15.116165 15.878570 -14.579756 -10.405514 3.090466 -14.082293 8.028685 78.330536 46.501934 32.085384 134.917725 -1.752527 0.863747 24.679241 4.365988 -4.297939 -17.295517 38.913212 25.753588 117.064468 4.608104 -12.342508 8.071599 -0.230286 -13.683724 -22.704386 -38.634075 -22.378168 121.389534 -12.636255 -6.304580 21.135582 1.703268 12.550586 
-23.695509 56.865574 1.804126 -6.897039 1.541503 -3.145355 0.000000 0.000000 0.000000 9.043918 -2.777591 -5.930636 -59.569790 8.744179 -8.239268 54.463909 -5.822240 0.769608 -3.519355 9.157742 6.311733 -75.908012 -58.032913 23.895144 -82.577271 -6.037218 46.212746 -1.670140 -22.572338 -5.872506 3.090466 -14.082293 8.028685 110.985237 72.494591 65.403229 117.726974 3.463147 3.436235 15.433320 0.001442 -6.435194 -15.928185 37.710007 24.742180 121.735023 4.646674 -13.588371 5.678130 0.060561 -11.438501 -24.676279 -38.733608 -17.563536 130.083282 -12.265196 -4.859746 19.421461 1.362854 11.265593 
-23.558107 56.175255 1.159606 -7.680190 1.935618 -3.981527 0.000000 0.000000 0.000000 11.652666 -3.481607 -6.401577 -60.202858 7.892354 -6.725583 52.644154 -5.250569 1.211980 -3.519355 9.157742 6.311733 -97.625160 -78.046143 58.338470 -68.004906 -1.889329 51.728493 9.673159 -19.541624 -9.224214 3.090466 -14.082293 8.028685 18.468668 107.001877 -40.033680 97.361160 11.920554 7.383614 8.382262 -0.770705 -7.298871 -16.894960 35.926895 26.251839 119.372757 4.754712 -12.534452 5.892847 0.060826 -11.972990 -28.463703 -37.931023 -16.933523 130.034622 -11.893969 -1.613980 16.854412 0.943210 9.676971 
-23.607031 55.706837 0.391922 -6.066864 1.612019 -4.634132 0.000000 0.000000 0.000000 13.532335 -3.551211 -7.612067 -67.218430 10.188329 -9.131590 52.390072 -8.725392 1.872953 -3.519355 9.157742 6.311733 -30.152454 -97.251945 -8.227302 -58.085781 3.267377 54.585453 21.709646 -20.482370 -12.531547 3.090466 -14.082293 8.028685 45.401497 123.739571 -23.473684 78.027283 13.044888 23.757315 7.192809 -0.043417 -7.236562 -19.551077 34.948746 27.756079 110.327202 4.325695 -12.256258 7.208383 -0.081917 -13.250371 -32.829590 -36.302433 -20.490082 121.362610 -12.038610 0.680705 15.145992 0.662801 8.128167 
-23.382710 55.485874 -0.036276 -5.286667 2.071237 -5.269614 0.000000 0.000000 0.000000 13.012371 -1.503366 -10.015482 -66.336441 9.820137 -6.149206 51.508163 -7.577155 3.500631 -3.519355 9.157742 6.311733 -89.295380 -97.692520 34.176888 -56.338711 1.099341 40.317017 32.441494 -12.161394 -13.832237 3.090466 -14.082293 8.028685 48.344734 128.570251 -23.577101 70.537003 11.010562 30.655300 -5.007998 -8.714171 -8.744198 -18.672235 31.680080 29.023792 96.250969 2.161294 -13.846410 7.377497 -0.122629 -12.471172 -33.475391 -35.739086 -21.760500 105.838142 -10.751014 6.685453 14.937091 0.549362 6.685809 
